<mxfile host="65bd71144e">
    <diagram id="t5AuBy6BMTJjh7pPMlXW" name="Page-1">
        <mxGraphModel dx="1322" dy="2172" grid="1" gridSize="10" guides="1" tooltips="1" connect="1" arrows="1" fold="1" page="1" pageScale="1" pageWidth="1100" pageHeight="850" math="0" shadow="0">
            <root>
                <mxCell id="0"/>
                <mxCell id="1" parent="0"/>
                <mxCell id="100" style="edgeStyle=none;html=1;fontFamily=Helvetica;fontSize=12;fontColor=#000000;endArrow=classic;endFill=1;" parent="1" source="14" target="76" edge="1">
                    <mxGeometry relative="1" as="geometry">
                        <Array as="points">
                            <mxPoint x="300" y="735"/>
                        </Array>
                    </mxGeometry>
                </mxCell>
                <mxCell id="14" value="" style="strokeColor=#dddddd;shadow=0;strokeWidth=1;rounded=1;absoluteArcSize=1;arcSize=2;" parent="1" vertex="1">
                    <mxGeometry x="250" y="610" width="100" height="60" as="geometry"/>
                </mxCell>
                <mxCell id="15" value="&lt;font color=&quot;#000000&quot;&gt;Hosting&lt;/font&gt;&lt;br&gt;Firebase" style="sketch=0;dashed=0;connectable=0;html=1;fillColor=#5184F3;strokeColor=none;shape=mxgraph.gcp2.firebase;part=1;labelPosition=right;verticalLabelPosition=middle;align=left;verticalAlign=middle;spacingLeft=5;fontColor=#999999;fontSize=12;" parent="14" vertex="1">
                    <mxGeometry width="32.4" height="45" relative="1" as="geometry">
                        <mxPoint x="5" y="7" as="offset"/>
                    </mxGeometry>
                </mxCell>
                <mxCell id="41" style="edgeStyle=none;html=1;fontSize=12;fontColor=#636363;endArrow=doubleBlock;endFill=0;entryX=0.5;entryY=0;entryDx=0;entryDy=0;" parent="1" target="65" edge="1">
                    <mxGeometry relative="1" as="geometry">
                        <mxPoint x="300" y="470" as="targetPoint"/>
                        <mxPoint x="300" y="415" as="sourcePoint"/>
                    </mxGeometry>
                </mxCell>
                <mxCell id="42" value="&lt;div style=&quot;font-weight: normal; font-size: 12px; line-height: 19px;&quot;&gt;&lt;span style=&quot;font-size: 12px;&quot;&gt;Build&lt;/span&gt;&lt;/div&gt;" style="edgeLabel;html=1;align=center;verticalAlign=middle;resizable=0;points=[];fontSize=12;fontColor=#080808;fontStyle=1;labelBackgroundColor=default;" parent="41" vertex="1" connectable="0">
                    <mxGeometry x="-0.252" relative="1" as="geometry">
                        <mxPoint y="4" as="offset"/>
                    </mxGeometry>
                </mxCell>
                <mxCell id="16" value="&amp;nbsp;Web App (NextJS)" style="swimlane;whiteSpace=wrap;html=1;collapsible=0;align=left;" parent="1" vertex="1">
                    <mxGeometry x="200" y="85" width="565" height="330" as="geometry"/>
                </mxCell>
                <mxCell id="5" value="News Items Data&lt;br&gt;(json)" style="text;html=1;align=center;verticalAlign=middle;resizable=0;points=[];autosize=1;strokeColor=none;fillColor=none;" parent="16" vertex="1">
                    <mxGeometry x="15" y="120" width="110" height="40" as="geometry"/>
                </mxCell>
                <mxCell id="39" style="edgeStyle=none;html=1;entryX=0.79;entryY=-0.005;entryDx=0;entryDy=0;fontSize=12;endArrow=classic;endFill=1;entryPerimeter=0;" parent="16" target="35" edge="1">
                    <mxGeometry relative="1" as="geometry">
                        <mxPoint x="250" y="100" as="sourcePoint"/>
                        <Array as="points">
                            <mxPoint x="180" y="100"/>
                        </Array>
                    </mxGeometry>
                </mxCell>
                <mxCell id="17" value="&amp;nbsp;Survey (SurveyJS)" style="swimlane;whiteSpace=wrap;html=1;collapsible=0;align=left;" parent="16" vertex="1">
                    <mxGeometry x="250" y="40" width="300" height="270" as="geometry">
                        <mxRectangle x="330" y="180" width="150" height="30" as="alternateBounds"/>
                    </mxGeometry>
                </mxCell>
                <mxCell id="19" value="&amp;nbsp;SurveyPage" style="swimlane;whiteSpace=wrap;html=1;align=left;swimlaneLine=1;swimlaneHead=1;allowArrows=1;collapsible=0;fontStyle=0" parent="17" vertex="1">
                    <mxGeometry x="10" y="30" width="280" height="90" as="geometry"/>
                </mxCell>
                <mxCell id="24" value="SurveyElement" style="swimlane;whiteSpace=wrap;html=1;fontSize=12;expand=1;collapsible=0;fontStyle=0" parent="19" vertex="1">
                    <mxGeometry x="140" y="30" width="120" height="50" as="geometry"/>
                </mxCell>
                <mxCell id="23" value="SurveyElement" style="swimlane;whiteSpace=wrap;html=1;fontSize=12;expand=1;collapsible=0;fontStyle=0" parent="19" vertex="1">
                    <mxGeometry x="10" y="30" width="120" height="50" as="geometry"/>
                </mxCell>
                <mxCell id="20" value="&amp;nbsp;SurveyPage" style="swimlane;whiteSpace=wrap;html=1;align=left;swimlaneLine=1;swimlaneHead=1;allowArrows=1;collapsible=0;fontStyle=0" parent="17" vertex="1">
                    <mxGeometry x="10" y="130" width="280" height="110" as="geometry"/>
                </mxCell>
                <mxCell id="26" value="&lt;b&gt;NewsItemQuestion&lt;/b&gt;: SurveyElement" style="swimlane;whiteSpace=wrap;html=1;fontSize=12;expand=1;collapsible=0;fontStyle=0;startSize=30;" parent="20" vertex="1">
                    <mxGeometry x="10" y="30" width="120" height="70" as="geometry"/>
                </mxCell>
                <mxCell id="25" value="..." style="text;html=1;align=center;verticalAlign=middle;resizable=0;points=[];autosize=1;strokeColor=none;fillColor=none;fontSize=12;" parent="20" vertex="1">
                    <mxGeometry x="190" y="40" width="30" height="30" as="geometry"/>
                </mxCell>
                <mxCell id="32" value="Custom survey element implementation" style="shape=note2;boundedLbl=1;whiteSpace=wrap;html=1;size=14;verticalAlign=middle;align=center;fontSize=9;fillColor=#fff2cc;strokeColor=#d6b656;" parent="20" vertex="1">
                    <mxGeometry x="120" y="42.5" width="95" height="45" as="geometry"/>
                </mxCell>
                <mxCell id="22" value="..." style="text;html=1;align=center;verticalAlign=middle;resizable=0;points=[];autosize=1;strokeColor=none;fillColor=none;fontSize=14;" parent="17" vertex="1">
                    <mxGeometry x="125" y="230" width="40" height="30" as="geometry"/>
                </mxCell>
                <mxCell id="36" style="edgeStyle=none;html=1;entryX=0.5;entryY=0;entryDx=0;entryDy=0;fontSize=12;endArrow=classic;endFill=1;" parent="16" source="4" target="35" edge="1">
                    <mxGeometry relative="1" as="geometry">
                        <Array as="points">
                            <mxPoint x="125" y="75"/>
                        </Array>
                    </mxGeometry>
                </mxCell>
                <mxCell id="4" value="" style="shape=cylinder3;whiteSpace=wrap;html=1;boundedLbl=1;backgroundOutline=1;size=15;" parent="16" vertex="1">
                    <mxGeometry x="40" y="40" width="60" height="70" as="geometry"/>
                </mxCell>
                <mxCell id="35" value="&amp;nbsp; pages /[features]/[group]/[part]" style="swimlane;whiteSpace=wrap;html=1;fontSize=12;collapsible=0;align=left;" parent="16" vertex="1">
                    <mxGeometry x="30" y="170" width="190" height="140" as="geometry"/>
                </mxCell>
                <mxCell id="40" value="/basic/group-1/qualification&lt;br&gt;&lt;div style=&quot;text-align: left;&quot;&gt;&lt;span style=&quot;background-color: initial;&quot;&gt;/basic/group-1/main&lt;/span&gt;&lt;/div&gt;&lt;div style=&quot;text-align: left;&quot;&gt;&lt;span style=&quot;background-color: initial;&quot;&gt;/basic/group-2/qualification&lt;/span&gt;&lt;/div&gt;&lt;div style=&quot;text-align: left;&quot;&gt;...&lt;/div&gt;&lt;div style=&quot;text-align: left;&quot;&gt;/explanations/group-2/main&lt;/div&gt;" style="text;html=1;align=center;verticalAlign=middle;resizable=0;points=[];autosize=1;strokeColor=none;fillColor=none;fontSize=12;fontColor=#636363;" parent="35" vertex="1">
                    <mxGeometry x="10" y="30" width="170" height="90" as="geometry"/>
                </mxCell>
                <mxCell id="6" style="edgeStyle=none;html=1;endArrow=doubleBlock;endFill=0;entryX=1;entryY=0;entryDx=0;entryDy=15;entryPerimeter=0;" parent="1" source="2" target="4" edge="1">
                    <mxGeometry relative="1" as="geometry">
                        <Array as="points">
                            <mxPoint x="400" y="-5"/>
                            <mxPoint x="400" y="140"/>
                        </Array>
                    </mxGeometry>
                </mxCell>
                <mxCell id="11" value="Preprocessing &lt;br style=&quot;font-size: 12px;&quot;&gt;Script&lt;br style=&quot;font-size: 12px;&quot;&gt;(Python)" style="edgeLabel;html=1;align=center;verticalAlign=middle;resizable=0;points=[];fontSize=12;" parent="6" vertex="1" connectable="0">
                    <mxGeometry x="-0.2133" y="-1" relative="1" as="geometry">
                        <mxPoint x="1" y="9" as="offset"/>
                    </mxGeometry>
                </mxCell>
                <mxCell id="78" style="edgeStyle=none;html=1;entryX=0.5;entryY=0;entryDx=0;entryDy=0;fontFamily=Helvetica;fontSize=12;fontColor=#000000;endArrow=classic;endFill=1;" parent="1" source="65" target="14" edge="1">
                    <mxGeometry relative="1" as="geometry"/>
                </mxCell>
                <mxCell id="79" value="Deploy" style="edgeLabel;html=1;align=center;verticalAlign=middle;resizable=0;points=[];fontSize=12;fontFamily=Helvetica;fontColor=#000000;" parent="78" vertex="1" connectable="0">
                    <mxGeometry x="0.2401" y="1" relative="1" as="geometry">
                        <mxPoint x="-1" y="-8" as="offset"/>
                    </mxGeometry>
                </mxCell>
                <mxCell id="83" style="edgeStyle=none;html=1;entryX=0;entryY=0.5;entryDx=0;entryDy=0;fontFamily=Helvetica;fontSize=12;fontColor=#000000;endArrow=doubleBlock;endFill=0;" parent="1" source="65" target="80" edge="1">
                    <mxGeometry relative="1" as="geometry"/>
                </mxCell>
                <mxCell id="84" value="Process&lt;br&gt;(Gulp)" style="edgeLabel;html=1;align=center;verticalAlign=middle;resizable=0;points=[];fontSize=12;fontFamily=Helvetica;fontColor=#000000;" parent="83" vertex="1" connectable="0">
                    <mxGeometry x="-0.3015" y="-2" relative="1" as="geometry">
                        <mxPoint x="9" y="-2" as="offset"/>
                    </mxGeometry>
                </mxCell>
                <mxCell id="65" value="&amp;nbsp;Static files" style="swimlane;whiteSpace=wrap;html=1;labelBackgroundColor=none;fontFamily=Helvetica;fontSize=12;fontColor=#000000;fillColor=default;align=left;collapsible=0;" parent="1" vertex="1">
                    <mxGeometry x="200" y="475" width="200" height="80" as="geometry"/>
                </mxCell>
                <mxCell id="67" value="" style="sketch=0;pointerEvents=1;shadow=0;dashed=0;html=1;strokeColor=none;fillColor=#000000;aspect=fixed;labelPosition=center;verticalLabelPosition=bottom;verticalAlign=top;align=center;outlineConnect=0;shape=mxgraph.vvd.folder;labelBackgroundColor=none;fontFamily=Helvetica;fontSize=12;fontColor=#000000;" parent="65" vertex="1">
                    <mxGeometry x="15" y="35" width="26.31" height="20" as="geometry"/>
                </mxCell>
                <mxCell id="69" value="JavaScript, CSS &amp;amp; HTML" style="text;html=1;align=left;verticalAlign=middle;resizable=0;points=[];autosize=1;strokeColor=none;fillColor=none;fontSize=12;fontFamily=Helvetica;fontColor=#000000;labelBackgroundColor=none;" parent="65" vertex="1">
                    <mxGeometry x="50" y="30" width="160" height="30" as="geometry"/>
                </mxCell>
                <mxCell id="104" style="edgeStyle=none;html=1;entryX=0.75;entryY=1;entryDx=0;entryDy=0;fontFamily=Helvetica;fontSize=12;fontColor=#000000;endArrow=classic;endFill=1;" parent="1" source="76" target="77" edge="1">
                    <mxGeometry relative="1" as="geometry">
                        <Array as="points">
                            <mxPoint x="1003" y="735"/>
                        </Array>
                    </mxGeometry>
                </mxCell>
                <mxCell id="105" value="HTTP POST&lt;br&gt;Survey Answers" style="edgeLabel;html=1;align=center;verticalAlign=middle;resizable=0;points=[];fontSize=12;fontFamily=Helvetica;fontColor=#000000;" parent="104" vertex="1" connectable="0">
                    <mxGeometry x="-0.6228" y="-5" relative="1" as="geometry">
                        <mxPoint y="-5" as="offset"/>
                    </mxGeometry>
                </mxCell>
                <mxCell id="76" value="Participant" style="sketch=0;outlineConnect=0;fontColor=#232F3E;gradientColor=none;strokeColor=#232F3E;fillColor=none;dashed=0;verticalLabelPosition=bottom;verticalAlign=top;align=center;fontSize=12;fontStyle=0;aspect=fixed;shape=mxgraph.aws4.resourceIcon;resIcon=mxgraph.aws4.client;labelBackgroundColor=none;strokeWidth=1;fontFamily=Helvetica;labelBorderColor=none;html=1;" parent="1" vertex="1">
                    <mxGeometry x="585" y="705" width="60" height="60" as="geometry"/>
                </mxCell>
                <mxCell id="102" style="edgeStyle=none;html=1;fontFamily=Helvetica;fontSize=12;fontColor=#000000;endArrow=classic;endFill=1;" parent="1" edge="1">
                    <mxGeometry relative="1" as="geometry">
                        <Array as="points">
                            <mxPoint x="940" y="620"/>
                            <mxPoint x="615" y="620"/>
                        </Array>
                        <mxPoint x="940" y="285" as="sourcePoint"/>
                        <mxPoint x="615" y="710" as="targetPoint"/>
                    </mxGeometry>
                </mxCell>
                <mxCell id="103" value="HTTP GET&lt;br&gt;Survey HTML" style="edgeLabel;html=1;align=center;verticalAlign=middle;resizable=0;points=[];fontSize=12;fontFamily=Helvetica;fontColor=#000000;" parent="102" vertex="1" connectable="0">
                    <mxGeometry x="0.866" y="-2" relative="1" as="geometry">
                        <mxPoint as="offset"/>
                    </mxGeometry>
                </mxCell>
                <mxCell id="77" value="&amp;nbsp; Crowdsourcing Platform" style="swimlane;whiteSpace=wrap;html=1;labelBackgroundColor=none;strokeColor=default;strokeWidth=1;fontFamily=Helvetica;fontSize=12;fontColor=#000000;fillColor=none;expand=1;collapsible=0;align=left;startSize=25;" parent="1" vertex="1">
                    <mxGeometry x="800" y="85" width="270" height="200" as="geometry"/>
                </mxCell>
                <mxCell id="86" value="&amp;nbsp; Jobs" style="swimlane;whiteSpace=wrap;html=1;shadow=0;labelBackgroundColor=none;strokeColor=default;strokeWidth=1;fontFamily=Helvetica;fontSize=12;fontColor=#000000;fillColor=none;collapsible=0;align=left;" parent="77" vertex="1">
                    <mxGeometry x="20" y="40" width="230" height="150" as="geometry"/>
                </mxCell>
                <mxCell id="90" value="  Job" style="swimlane;fontStyle=0;childLayout=stackLayout;horizontal=1;startSize=26;fillColor=none;horizontalStack=0;resizeParent=1;resizeParentMax=0;resizeLast=0;collapsible=0;marginBottom=0;shadow=0;labelBackgroundColor=none;strokeColor=default;strokeWidth=1;fontFamily=Helvetica;fontSize=12;fontColor=#000000;align=left;" parent="86" vertex="1">
                    <mxGeometry x="10" y="33" width="100" height="104" as="geometry"/>
                </mxCell>
                <mxCell id="91" value="name: string" style="text;strokeColor=none;fillColor=none;align=left;verticalAlign=top;spacingLeft=4;spacingRight=4;overflow=hidden;rotatable=0;points=[[0,0.5],[1,0.5]];portConstraint=eastwest;shadow=0;labelBackgroundColor=none;strokeWidth=1;fontFamily=Helvetica;fontSize=12;fontColor=#000000;" parent="90" vertex="1">
                    <mxGeometry y="26" width="100" height="26" as="geometry"/>
                </mxCell>
                <mxCell id="92" value="html: string" style="text;strokeColor=none;fillColor=none;align=left;verticalAlign=top;spacingLeft=4;spacingRight=4;overflow=hidden;rotatable=0;points=[[0,0.5],[1,0.5]];portConstraint=eastwest;shadow=0;labelBackgroundColor=none;strokeWidth=1;fontFamily=Helvetica;fontSize=12;fontColor=#000000;" parent="90" vertex="1">
                    <mxGeometry y="52" width="100" height="26" as="geometry"/>
                </mxCell>
                <mxCell id="93" value="..." style="text;strokeColor=none;fillColor=none;align=left;verticalAlign=top;spacingLeft=4;spacingRight=4;overflow=hidden;rotatable=0;points=[[0,0.5],[1,0.5]];portConstraint=eastwest;shadow=0;labelBackgroundColor=none;strokeWidth=1;fontFamily=Helvetica;fontSize=12;fontColor=#000000;" parent="90" vertex="1">
                    <mxGeometry y="78" width="100" height="26" as="geometry"/>
                </mxCell>
                <mxCell id="94" value="  Job" style="swimlane;fontStyle=0;childLayout=stackLayout;horizontal=1;startSize=26;fillColor=none;horizontalStack=0;resizeParent=1;resizeParentMax=0;resizeLast=0;collapsible=0;marginBottom=0;shadow=0;labelBackgroundColor=none;strokeColor=default;strokeWidth=1;fontFamily=Helvetica;fontSize=12;fontColor=#000000;align=left;" parent="86" vertex="1">
                    <mxGeometry x="120" y="33" width="100" height="104" as="geometry"/>
                </mxCell>
                <mxCell id="95" value="name: string" style="text;strokeColor=none;fillColor=none;align=left;verticalAlign=top;spacingLeft=4;spacingRight=4;overflow=hidden;rotatable=0;points=[[0,0.5],[1,0.5]];portConstraint=eastwest;shadow=0;labelBackgroundColor=none;strokeWidth=1;fontFamily=Helvetica;fontSize=12;fontColor=#000000;" parent="94" vertex="1">
                    <mxGeometry y="26" width="100" height="26" as="geometry"/>
                </mxCell>
                <mxCell id="96" value="html: string" style="text;strokeColor=none;fillColor=none;align=left;verticalAlign=top;spacingLeft=4;spacingRight=4;overflow=hidden;rotatable=0;points=[[0,0.5],[1,0.5]];portConstraint=eastwest;shadow=0;labelBackgroundColor=none;strokeWidth=1;fontFamily=Helvetica;fontSize=12;fontColor=#000000;" parent="94" vertex="1">
                    <mxGeometry y="52" width="100" height="26" as="geometry"/>
                </mxCell>
                <mxCell id="97" value="..." style="text;strokeColor=none;fillColor=none;align=left;verticalAlign=top;spacingLeft=4;spacingRight=4;overflow=hidden;rotatable=0;points=[[0,0.5],[1,0.5]];portConstraint=eastwest;shadow=0;labelBackgroundColor=none;strokeWidth=1;fontFamily=Helvetica;fontSize=12;fontColor=#000000;" parent="94" vertex="1">
                    <mxGeometry y="78" width="100" height="26" as="geometry"/>
                </mxCell>
                <mxCell id="108" value="" style="shape=image;verticalLabelPosition=bottom;labelBackgroundColor=default;verticalAlign=top;aspect=fixed;imageAspect=0;image=https://dashboard-staging.crowdee.com/assets/img/Crowdee.svg;" parent="77" vertex="1">
                    <mxGeometry x="187" y="3" width="74.29" height="20" as="geometry"/>
                </mxCell>
                <mxCell id="80" value="&amp;nbsp;Escaped HTML files" style="swimlane;whiteSpace=wrap;html=1;labelBackgroundColor=none;fontFamily=Helvetica;fontSize=12;fontColor=#000000;fillColor=default;align=left;collapsible=0;" parent="1" vertex="1">
                    <mxGeometry x="495" y="475" width="220" height="80" as="geometry"/>
                </mxCell>
                <mxCell id="81" value="" style="sketch=0;pointerEvents=1;shadow=0;dashed=0;html=1;strokeColor=none;fillColor=#000000;aspect=fixed;labelPosition=center;verticalLabelPosition=bottom;verticalAlign=top;align=center;outlineConnect=0;shape=mxgraph.vvd.folder;labelBackgroundColor=none;fontFamily=Helvetica;fontSize=12;fontColor=#000000;" parent="80" vertex="1">
                    <mxGeometry x="15" y="35" width="26.31" height="20" as="geometry"/>
                </mxCell>
                <mxCell id="85" value="...&lt;br&gt;basic-group-1-main.jsonhtml&lt;br&gt;..." style="text;html=1;align=left;verticalAlign=middle;resizable=0;points=[];autosize=1;strokeColor=none;fillColor=none;fontSize=12;fontFamily=Helvetica;fontColor=#636363;labelBackgroundColor=none;" parent="80" vertex="1">
                    <mxGeometry x="50" y="20" width="170" height="60" as="geometry"/>
                </mxCell>
                <mxCell id="98" style="edgeStyle=none;html=1;fontFamily=Helvetica;fontSize=12;fontColor=#000000;endArrow=classic;endFill=1;" parent="1" source="85" edge="1">
                    <mxGeometry relative="1" as="geometry">
                        <mxPoint x="865" y="285" as="targetPoint"/>
                        <Array as="points">
                            <mxPoint x="865" y="525"/>
                        </Array>
                    </mxGeometry>
                </mxCell>
                <mxCell id="99" value="HTTP PUT&lt;br&gt;Escaped HTML" style="text;html=1;align=center;verticalAlign=middle;resizable=0;points=[];autosize=1;strokeColor=none;fillColor=none;fontSize=12;fontFamily=Helvetica;fontColor=#000000;labelBackgroundColor=default;" parent="1" vertex="1">
                    <mxGeometry x="805" y="415" width="110" height="40" as="geometry"/>
                </mxCell>
                <mxCell id="101" value="HTTP GET&lt;br&gt;JavaScript, CSS files" style="text;html=1;align=center;verticalAlign=middle;resizable=0;points=[];autosize=1;strokeColor=none;fillColor=none;fontSize=12;fontFamily=Helvetica;fontColor=#000000;labelBackgroundColor=default;" parent="1" vertex="1">
                    <mxGeometry x="335" y="715" width="140" height="40" as="geometry"/>
                </mxCell>
                <mxCell id="2" value="" style="shape=cylinder3;whiteSpace=wrap;html=1;boundedLbl=1;backgroundOutline=1;size=15;" parent="1" vertex="1">
                    <mxGeometry x="240" y="-40" width="60" height="70" as="geometry"/>
                </mxCell>
                <mxCell id="110" value="&lt;span style=&quot;background-color: rgb(255, 255, 255);&quot;&gt;News Items Data&lt;/span&gt;&lt;br style=&quot;border-color: var(--border-color);&quot;&gt;&lt;span style=&quot;background-color: rgb(255, 255, 255);&quot;&gt;(csv)&lt;/span&gt;" style="text;html=1;align=center;verticalAlign=middle;resizable=0;points=[];autosize=1;strokeColor=none;fillColor=none;" vertex="1" parent="1">
                    <mxGeometry x="215" y="30" width="110" height="40" as="geometry"/>
                </mxCell>
            </root>
        </mxGraphModel>
    </diagram>
</mxfile>